<svg width="224" height="136" viewBox="0 0 224 136" fill="none" xmlns="http://www.w3.org/2000/svg">
<g clip-path="url(#clip0_8_44)">
<path d="M203.465 65.1129C197.335 67.3243 187.197 69.7814 176.116 71.9928C172.108 78.6269 164.799 84.0325 153.483 85.7525C150.889 86.2439 147.824 86.4896 144.759 86.4896C136.979 86.4896 127.784 85.5068 117.647 84.2782C116.939 84.2782 115.996 84.0325 115.289 84.0325C112.695 83.7868 110.809 81.3297 110.809 78.6269C111.045 75.6784 113.403 73.467 116.468 73.7127C117.175 73.7127 118.118 73.9584 118.825 73.9584C132.028 75.4327 144.288 76.907 152.068 75.6784C166.686 73.2213 170.929 64.1301 170.222 56.5131C169.515 50.1247 165.271 43.9819 158.198 44.2276C148.06 44.7191 136.036 43.4905 124.484 42.262C111.281 40.7877 97.3708 39.5592 87.7044 41.0334C82.2818 41.7706 73.087 45.4562 63.1849 49.6332C61.063 50.6161 58.7054 51.5989 56.5835 52.5818V119.415C76.3877 126.786 100.436 134.649 114.817 135.877C143.581 138.334 200.164 104.181 216.196 93.3695C232.228 82.3126 221.383 58.7245 203.465 65.1129Z" fill="black"/>
<path d="M39.8442 40.542H6.60141C2.82918 40.542 0 43.7362 0 47.4218V123.592C0 127.523 3.06494 130.472 6.60141 130.472H39.8442C43.6165 130.472 46.4456 127.277 46.4456 123.592V47.4218C46.4456 43.4905 43.6165 40.542 39.8442 40.542Z" fill="black"/>
<path d="M73.0163 17.4453H217.776C220.134 17.4453 222.02 15.4797 222.02 13.0226V4.42276C222.02 1.96567 220.134 0 217.776 0H73.0163C70.6587 0 68.7726 1.96567 68.7726 4.42276V13.0226C68.7726 15.4797 70.6587 17.4453 73.0163 17.4453Z" fill="black"/>
</g>
<defs>
<clipPath id="clip0_8_44">
<rect width="224" height="136" fill="white"/>
</clipPath>
</defs>
</svg>
