<svg width="114" height="142" viewBox="0 0 114 142" fill="none" xmlns="http://www.w3.org/2000/svg">
<g clip-path="url(#clip0_8_9)">
<path d="M77.8201 6.89197C67.2859 6.89197 58.7029 15.4448 58.7029 25.942C58.7029 35.7796 66.2433 43.912 75.8614 44.895V67.6337H71.944C71.4262 67.637 70.9309 67.8446 70.5664 68.2111C70.2019 68.5776 69.998 69.073 69.9993 69.589V98.9112C69.9993 103.197 73.5192 106.708 77.8201 106.708C82.1209 106.708 85.6443 103.197 85.6443 98.9112V69.589C85.645 69.3323 85.5948 69.0781 85.4966 68.8408C85.3984 68.6035 85.2542 68.3879 85.0723 68.2062C84.8903 68.0246 84.6742 67.8805 84.4362 67.7823C84.1983 67.684 83.9432 67.6335 83.6857 67.6337H79.7683V44.895C89.3899 43.9167 96.9268 35.7832 96.9268 25.942C96.9268 15.4448 88.3542 6.89197 77.8201 6.89197ZM19.0318 8.82991C18.5147 8.82955 18.0184 9.03316 17.6514 9.39628C17.2844 9.7594 17.0765 10.2525 17.0732 10.7678V41.4559C17.073 41.7123 17.1235 41.9662 17.2219 42.2031C17.3203 42.4399 17.4646 42.6552 17.6465 42.8365C17.8284 43.0177 18.0444 43.1615 18.2821 43.2595C18.5198 43.3575 18.7746 43.4079 19.0318 43.4077H30.7352V67.6337H26.8283C26.5707 67.6335 26.3157 67.684 26.0777 67.7823C25.8398 67.8805 25.6236 68.0246 25.4417 68.2062C25.2597 68.3879 25.1155 68.6035 25.0174 68.8408C24.9192 69.0781 24.869 69.3323 24.8696 69.589V98.9112C24.8696 103.197 28.3931 106.708 32.6939 106.708C36.9947 106.708 40.5182 103.197 40.5182 98.9112V69.589C40.5188 69.3323 40.4686 69.0781 40.3704 68.8408C40.2723 68.6035 40.1281 68.3879 39.9461 68.2062C39.7642 68.0246 39.548 67.8805 39.3101 67.7823C39.0721 67.684 38.8171 67.6335 38.5595 67.6337H34.6526V43.4077H46.3699C46.887 43.4044 47.3819 43.1973 47.7463 42.8316C48.1107 42.4659 48.315 41.9713 48.3146 41.4559V10.7678C48.3113 10.2549 48.1054 9.76387 47.7414 9.40114C47.3774 9.03842 46.8846 8.83319 46.3699 8.82991H19.0318ZM77.8201 10.7956C86.2388 10.7956 93.0198 17.5528 93.0198 25.942C93.0198 34.3312 86.2388 41.0885 77.8201 41.0885C69.4013 41.0885 62.6064 34.3312 62.6064 25.942C62.6064 17.5528 69.4013 10.7956 77.8201 10.7956ZM20.9905 12.7197H44.4112V39.5041H20.9905V12.7197ZM71.0708 16.3633C70.7381 16.3541 70.407 16.4115 70.097 16.532C69.7869 16.6526 69.5043 16.8338 69.2657 17.0651C69.0272 17.2963 68.8376 17.5728 68.7081 17.8783C68.5786 18.1839 68.5119 18.5121 68.5119 18.8438C68.5119 19.1754 68.5786 19.5036 68.7081 19.8092C68.8376 20.1147 69.0272 20.3912 69.2657 20.6224C69.5043 20.8537 69.7869 21.0349 70.097 21.1555C70.407 21.276 70.7381 21.3334 71.0708 21.3242C71.4035 21.3334 71.7346 21.276 72.0446 21.1555C72.3547 21.0349 72.6373 20.8537 72.8759 20.6224C73.1144 20.3912 73.304 20.1147 73.4335 19.8092C73.563 19.5036 73.6297 19.1754 73.6297 18.8438C73.6297 18.5121 73.563 18.1839 73.4335 17.8783C73.304 17.5728 73.1144 17.2963 72.8759 17.0651C72.6373 16.8338 72.3547 16.6526 72.0446 16.532C71.7346 16.4115 71.4035 16.3541 71.0708 16.3633ZM84.5624 16.3633C84.2297 16.3541 83.8986 16.4115 83.5885 16.532C83.2785 16.6526 82.9958 16.8338 82.7573 17.0651C82.5187 17.2963 82.3291 17.5728 82.1997 17.8783C82.0702 18.1839 82.0035 18.5121 82.0035 18.8438C82.0035 19.1754 82.0702 19.5036 82.1997 19.8092C82.3291 20.1147 82.5187 20.3912 82.7573 20.6224C82.9958 20.8537 83.2785 21.0349 83.5885 21.1555C83.8986 21.276 84.2297 21.3334 84.5624 21.3242C84.8951 21.3334 85.2262 21.276 85.5362 21.1555C85.8463 21.0349 86.1289 20.8537 86.3675 20.6224C86.606 20.3912 86.7956 20.1147 86.9251 19.8092C87.0546 19.5036 87.1213 19.1754 87.1213 18.8438C87.1213 18.5121 87.0546 18.1839 86.9251 17.8783C86.7956 17.5728 86.606 17.2963 86.3675 17.0651C86.1289 16.8338 85.8463 16.6526 85.5362 16.532C85.2262 16.4115 84.8951 16.3541 84.5624 16.3633ZM27.6841 18.3567C27.4269 18.3597 27.1727 18.4132 26.9362 18.5141C26.6997 18.6151 26.4855 18.7615 26.3058 18.9451C26.1262 19.1286 25.9846 19.3456 25.8892 19.5837C25.7938 19.8219 25.7464 20.0764 25.7498 20.3327V30.8163C25.7498 31.0729 25.8005 31.3269 25.899 31.5639C25.9976 31.8009 26.142 32.0163 26.324 32.1977C26.506 32.3791 26.7222 32.523 26.96 32.6212C27.1979 32.7193 27.4528 32.7699 27.7102 32.7699C27.9677 32.7699 28.2226 32.7193 28.4604 32.6212C28.6983 32.523 28.9144 32.3791 29.0965 32.1977C29.2785 32.0163 29.4229 31.8009 29.5214 31.5639C29.6199 31.3269 29.6706 31.0729 29.6706 30.8163V20.3327C29.6741 20.072 29.6251 19.8132 29.5264 19.5717C29.4278 19.3301 29.2815 19.1108 29.0963 18.9265C28.9111 18.7423 28.6907 18.5969 28.4482 18.4991C28.2056 18.4012 27.9458 18.3528 27.6841 18.3567ZM37.6515 18.3567C37.3942 18.3597 37.14 18.4132 36.9035 18.5141C36.667 18.6151 36.4528 18.7615 36.2732 18.9451C36.0935 19.1286 35.9519 19.3456 35.8565 19.5837C35.7611 19.8219 35.7138 20.0764 35.7172 20.3327V30.8163C35.7172 31.3344 35.9237 31.8313 36.2913 32.1977C36.659 32.5641 37.1576 32.7699 37.6776 32.7699C38.1975 32.7699 38.6961 32.5641 39.0638 32.1977C39.4314 31.8313 39.638 31.3344 39.638 30.8163V20.3327C39.6414 20.072 39.5924 19.8132 39.4938 19.5717C39.3951 19.3301 39.2489 19.1108 39.0637 18.9265C38.8785 18.7423 38.6581 18.5969 38.4155 18.4991C38.1729 18.4012 37.9131 18.3528 37.6515 18.3567ZM77.8166 23.4633C77.4839 23.4541 77.1528 23.5115 76.8427 23.632C76.5327 23.7526 76.2501 23.9338 76.0115 24.1651C75.773 24.3963 75.5834 24.6728 75.4539 24.9784C75.3244 25.2839 75.2577 25.6121 75.2577 25.9438C75.2577 26.2754 75.3244 26.6036 75.4539 26.9092C75.5834 27.2147 75.773 27.4912 76.0115 27.7224C76.2501 27.9537 76.5327 28.1349 76.8427 28.2555C77.1528 28.376 77.4839 28.4334 77.8166 28.4242C78.1493 28.4334 78.4804 28.376 78.7904 28.2555C79.1005 28.1349 79.3831 27.9537 79.6217 27.7224C79.8602 27.4912 80.0498 27.2147 80.1793 26.9092C80.3088 26.6036 80.3755 26.2754 80.3755 25.9438C80.3755 25.6121 80.3088 25.2839 80.1793 24.9784C80.0498 24.6728 79.8602 24.3963 79.6217 24.1651C79.3831 23.9338 79.1005 23.7526 78.7904 23.632C78.4804 23.5115 78.1493 23.4541 77.8166 23.4633ZM71.0708 30.5633C70.7381 30.5541 70.407 30.6115 70.0969 30.732C69.7869 30.8526 69.5043 31.0338 69.2657 31.2651C69.0272 31.4963 68.8375 31.7728 68.7081 32.0783C68.5786 32.3838 68.5119 32.7121 68.5119 33.0438C68.5119 33.3754 68.5786 33.7036 68.7081 34.0092C68.8375 34.3147 69.0272 34.5912 69.2657 34.8224C69.5043 35.0537 69.7869 35.2349 70.0969 35.3555C70.407 35.476 70.7381 35.5334 71.0708 35.5242C71.4035 35.5334 71.7346 35.476 72.0447 35.3555C72.3547 35.2349 72.6373 35.0537 72.8759 34.8224C73.1144 34.5912 73.3041 34.3147 73.4335 34.0092C73.563 33.7036 73.6297 33.3754 73.6297 33.0438C73.6297 32.7121 73.563 32.3838 73.4335 32.0783C73.3041 31.7728 73.1144 31.4963 72.8759 31.2651C72.6373 31.0338 72.3547 30.8526 72.0447 30.732C71.7346 30.6115 71.4035 30.5541 71.0708 30.5633ZM84.5624 30.5633C84.2297 30.5541 83.8986 30.6115 83.5885 30.732C83.2785 30.8526 82.9958 31.0338 82.7573 31.2651C82.5187 31.4963 82.3291 31.7728 82.1996 32.0783C82.0702 32.3838 82.0035 32.7121 82.0035 33.0438C82.0035 33.3754 82.0702 33.7036 82.1996 34.0092C82.3291 34.3147 82.5187 34.5912 82.7573 34.8224C82.9958 35.0537 83.2785 35.2349 83.5885 35.3555C83.8986 35.476 84.2297 35.5334 84.5624 35.5242C84.8951 35.5334 85.2262 35.476 85.5362 35.3555C85.8463 35.2349 86.1289 35.0537 86.3675 34.8224C86.606 34.5912 86.7956 34.3147 86.9251 34.0092C87.0546 33.7036 87.1213 33.3754 87.1213 33.0438C87.1213 32.7121 87.0546 32.3838 86.9251 32.0783C86.7956 31.7728 86.606 31.4963 86.3675 31.2651C86.1289 31.0338 85.8463 30.8526 85.5362 30.732C85.2262 30.6115 84.8951 30.5541 84.5624 30.5633ZM28.787 71.5269H36.6112V93.4752H28.787V71.5269ZM73.9027 71.5269H81.727V93.4752H73.9027V71.5269ZM28.787 97.3788H36.6112V98.9112C36.6112 101.102 34.8928 102.804 32.6939 102.804C30.495 102.804 28.787 101.102 28.787 98.9112V97.3788ZM73.9027 97.3788H81.727V98.9112C81.727 101.102 80.0189 102.804 77.8201 102.804C75.6212 102.804 73.9027 101.102 73.9027 98.9112V97.3788Z" fill="black"/>
</g>
<defs>
<clipPath id="clip0_8_9">
<rect width="114" height="142" fill="white"/>
</clipPath>
</defs>
</svg>
